<mxfile host="Electron" agent="Mozilla/5.0 (X11; Linux x86_64) AppleWebKit/537.36 (KHTML, like Gecko) draw.io/24.6.1 Chrome/124.0.6367.207 Electron/30.0.6 Safari/537.36" modified="2024-09-25T10:55:29.909Z" version="24.6.1" etag="uyyguxasO0XySuE9Uk5F" type="device">
  <diagram name="Page-1" id="v5BT3ppc99lddjZmeo0E">
    <mxGraphModel dx="2000" dy="1324" grid="1" gridSize="10" guides="1" tooltips="1" connect="1" arrows="1" fold="1" page="1" pageScale="1" pageWidth="827" pageHeight="1169" math="0" shadow="0">
      <root>
        <mxCell id="0" />
        <mxCell id="1" parent="0" />
        <mxCell id="f5diOmF-kt-5KAbiULR1-1" value="" style="rounded=0;whiteSpace=wrap;html=1;labelBackgroundColor=#D5E8D4;labelBorderColor=none;fillColor=#e1d5e7;strokeColor=none;fillStyle=solid;opacity=40;glass=0;shadow=0;fontSize=14;movable=1;resizable=1;rotatable=1;deletable=1;editable=1;locked=0;connectable=1;rotation=-90;" parent="1" vertex="1">
          <mxGeometry x="468.72" y="-145.77" width="256.6" height="765.04" as="geometry" />
        </mxCell>
        <mxCell id="f5diOmF-kt-5KAbiULR1-2" value="" style="rounded=0;whiteSpace=wrap;html=1;labelBackgroundColor=#D5E8D4;labelBorderColor=none;fillColor=#d5e8d4;strokeColor=none;fillStyle=solid;opacity=40;glass=0;shadow=0;fontSize=14;movable=1;resizable=1;rotatable=1;deletable=1;editable=1;locked=0;connectable=1;" parent="1" vertex="1">
          <mxGeometry x="1267" y="110" width="553" height="410" as="geometry" />
        </mxCell>
        <mxCell id="f5diOmF-kt-5KAbiULR1-3" value="" style="rounded=0;whiteSpace=wrap;html=1;labelBackgroundColor=#D5E8D4;labelBorderColor=none;fillColor=#b1eee5ff;gradientColor=none;strokeColor=none;fillStyle=solid;opacity=50;glass=0;shadow=0;fontSize=14;movable=1;resizable=1;rotatable=1;deletable=1;editable=1;locked=0;connectable=1;" parent="1" vertex="1">
          <mxGeometry x="1168" y="586" width="654" height="655" as="geometry" />
        </mxCell>
        <mxCell id="f5diOmF-kt-5KAbiULR1-4" value="" style="rounded=0;whiteSpace=wrap;html=1;labelBackgroundColor=#D5E8D4;labelBorderColor=none;fillColor=#9DE0D9;gradientColor=none;strokeColor=none;fillStyle=solid;opacity=40;glass=0;shadow=0;fontSize=14;movable=1;resizable=1;rotatable=1;deletable=1;editable=1;locked=0;connectable=1;" parent="1" vertex="1">
          <mxGeometry x="1281" y="811" width="380" height="420" as="geometry" />
        </mxCell>
        <mxCell id="f5diOmF-kt-5KAbiULR1-5" value="" style="rounded=0;whiteSpace=wrap;html=1;labelBackgroundColor=#D5E8D4;labelBorderColor=none;fillColor=#A9C4EB;gradientColor=none;strokeColor=none;fillStyle=solid;opacity=40;glass=0;shadow=0;fontSize=14;movable=1;resizable=1;rotatable=1;deletable=1;editable=1;locked=0;connectable=1;" parent="1" vertex="1">
          <mxGeometry x="220" y="415" width="930" height="825" as="geometry" />
        </mxCell>
        <mxCell id="f5diOmF-kt-5KAbiULR1-6" value="" style="edgeStyle=orthogonalEdgeStyle;rounded=0;orthogonalLoop=1;jettySize=auto;html=1;entryX=0.5;entryY=0;entryDx=0;entryDy=0;" parent="1" edge="1">
          <mxGeometry relative="1" as="geometry">
            <mxPoint x="573.0000000000001" y="1108" as="targetPoint" />
            <mxPoint x="572.9999999999999" y="1089" as="sourcePoint" />
          </mxGeometry>
        </mxCell>
        <mxCell id="f5diOmF-kt-5KAbiULR1-7" value="" style="rounded=0;whiteSpace=wrap;html=1;labelBackgroundColor=#D5E8D4;labelBorderColor=none;fillColor=#A9C4EB;gradientColor=none;strokeColor=none;fillStyle=solid;opacity=40;glass=0;shadow=0;fontSize=14;movable=1;resizable=1;rotatable=1;deletable=1;editable=1;locked=0;connectable=1;" parent="1" vertex="1">
          <mxGeometry x="340" y="869" width="460" height="220" as="geometry" />
        </mxCell>
        <mxCell id="f5diOmF-kt-5KAbiULR1-8" value="" style="edgeStyle=orthogonalEdgeStyle;rounded=0;orthogonalLoop=1;jettySize=auto;html=1;" parent="1" source="f5diOmF-kt-5KAbiULR1-10" target="f5diOmF-kt-5KAbiULR1-7" edge="1">
          <mxGeometry relative="1" as="geometry">
            <Array as="points">
              <mxPoint x="810" y="843" />
              <mxPoint x="575" y="843" />
            </Array>
          </mxGeometry>
        </mxCell>
        <mxCell id="f5diOmF-kt-5KAbiULR1-9" value="" style="edgeStyle=orthogonalEdgeStyle;rounded=0;orthogonalLoop=1;jettySize=auto;html=1;" parent="1" edge="1">
          <mxGeometry relative="1" as="geometry">
            <Array as="points">
              <mxPoint x="899" y="873" />
              <mxPoint x="899" y="873" />
            </Array>
            <mxPoint x="898.9999999999998" y="813" as="sourcePoint" />
            <mxPoint x="898.9999999999998" y="895.5" as="targetPoint" />
          </mxGeometry>
        </mxCell>
        <mxCell id="f5diOmF-kt-5KAbiULR1-10" value="" style="rounded=0;whiteSpace=wrap;html=1;labelBackgroundColor=#D5E8D4;labelBorderColor=none;fillColor=#A9C4EB;gradientColor=none;strokeColor=none;fillStyle=solid;opacity=40;glass=0;shadow=0;fontSize=14;movable=1;resizable=1;rotatable=1;deletable=1;editable=1;locked=0;connectable=1;" parent="1" vertex="1">
          <mxGeometry x="657" y="593" width="326.5" height="220" as="geometry" />
        </mxCell>
        <mxCell id="f5diOmF-kt-5KAbiULR1-11" value="" style="edgeStyle=orthogonalEdgeStyle;rounded=0;orthogonalLoop=1;jettySize=auto;html=1;" parent="1" source="f5diOmF-kt-5KAbiULR1-12" target="f5diOmF-kt-5KAbiULR1-7" edge="1">
          <mxGeometry relative="1" as="geometry">
            <Array as="points">
              <mxPoint x="455" y="843" />
              <mxPoint x="575" y="843" />
            </Array>
          </mxGeometry>
        </mxCell>
        <mxCell id="f5diOmF-kt-5KAbiULR1-12" value="" style="rounded=0;whiteSpace=wrap;html=1;labelBackgroundColor=#D5E8D4;labelBorderColor=none;fillColor=#A9C4EB;gradientColor=none;strokeColor=none;fillStyle=solid;opacity=40;glass=0;shadow=0;fontSize=14;movable=1;resizable=1;rotatable=1;deletable=1;editable=1;locked=0;connectable=1;" parent="1" vertex="1">
          <mxGeometry x="280" y="593" width="350" height="220" as="geometry" />
        </mxCell>
        <mxCell id="f5diOmF-kt-5KAbiULR1-13" value="" style="edgeStyle=orthogonalEdgeStyle;rounded=0;orthogonalLoop=1;jettySize=auto;html=1;" parent="1" source="f5diOmF-kt-5KAbiULR1-14" target="f5diOmF-kt-5KAbiULR1-18" edge="1">
          <mxGeometry relative="1" as="geometry" />
        </mxCell>
        <mxCell id="f5diOmF-kt-5KAbiULR1-14" value="&lt;div style=&quot;line-height: 100%; font-size: 14px;&quot;&gt;&lt;b style=&quot;font-size: 14px;&quot;&gt;&amp;nbsp;&lt;/b&gt;&lt;b style=&quot;background-color: initial; font-size: 14px;&quot;&gt;SNV Calling&lt;/b&gt;&lt;/div&gt;&lt;div style=&quot;line-height: 100%; font-size: 14px;&quot;&gt;Clair3,&amp;nbsp;&lt;/div&gt;&lt;div style=&quot;line-height: 100%; font-size: 14px;&quot;&gt;pepper-Margin-&lt;/div&gt;&lt;div style=&quot;line-height: 100%; font-size: 14px;&quot;&gt;DeepVariant&lt;/div&gt;" style="verticalLabelPosition=middle;verticalAlign=middle;html=1;shape=mxgraph.basic.rect;fillColor2=none;strokeWidth=1;size=20;indent=65.78;align=center;fontStyle=0;labelPosition=center;horizontal=1;spacing=0;spacingTop=0;fillColor=#BEC4EB;strokeColor=#7E8AD6;gradientColor=none;spacingBottom=0;fontColor=#1A1A1A;spacingLeft=0;spacingRight=0;fontSize=14;" parent="1" vertex="1">
          <mxGeometry x="821" y="632" width="139" height="60" as="geometry" />
        </mxCell>
        <mxCell id="f5diOmF-kt-5KAbiULR1-15" value="" style="edgeStyle=orthogonalEdgeStyle;rounded=0;orthogonalLoop=1;jettySize=auto;html=1;" parent="1" source="f5diOmF-kt-5KAbiULR1-16" target="f5diOmF-kt-5KAbiULR1-65" edge="1">
          <mxGeometry relative="1" as="geometry" />
        </mxCell>
        <mxCell id="f5diOmF-kt-5KAbiULR1-16" value="&lt;b style=&quot;font-size: 14px;&quot;&gt;SV Calling&lt;/b&gt;&lt;br style=&quot;font-size: 14px;&quot;&gt;&lt;div style=&quot;font-size: 14px;&quot;&gt;Sniffles2, cuteSV&lt;br style=&quot;font-size: 14px;&quot;&gt;&lt;/div&gt;&lt;p style=&quot;line-height: 120%; font-size: 14px;&quot;&gt;&lt;br style=&quot;font-size: 14px;&quot;&gt;&lt;/p&gt;" style="verticalLabelPosition=middle;verticalAlign=middle;html=1;shape=mxgraph.basic.rect;fillColor2=none;strokeWidth=1;size=20;indent=5;align=center;fontStyle=0;labelPosition=center;horizontal=1;spacing=2;spacingTop=40;fillColor=#BEC4EB;strokeColor=#7E8AD6;gradientColor=none;fontColor=#1A1A1A;fontSize=14;" parent="1" vertex="1">
          <mxGeometry x="664.5" y="632" width="130" height="60" as="geometry" />
        </mxCell>
        <mxCell id="SGbcWbmZrclR2duvIvgP-24" value="" style="edgeStyle=orthogonalEdgeStyle;rounded=0;orthogonalLoop=1;jettySize=auto;html=1;" edge="1" parent="1" source="f5diOmF-kt-5KAbiULR1-17" target="f5diOmF-kt-5KAbiULR1-118">
          <mxGeometry relative="1" as="geometry" />
        </mxCell>
        <mxCell id="f5diOmF-kt-5KAbiULR1-17" value="&lt;div style=&quot;line-height: 120%; font-size: 14px;&quot; align=&quot;center&quot;&gt;&lt;b style=&quot;font-size: 14px;&quot;&gt;BAM Quality Control &lt;/b&gt;&lt;span style=&quot;font-size: 14px;&quot;&gt;NanoPlot&lt;/span&gt;&lt;b style=&quot;font-size: 14px;&quot;&gt;,&amp;nbsp;&lt;/b&gt;&lt;span style=&quot;background-color: initial;&quot;&gt;qualimap,&lt;/span&gt;&lt;/div&gt;&lt;div style=&quot;line-height: 120%; font-size: 14px;&quot; align=&quot;center&quot;&gt;&lt;span style=&quot;background-color: initial;&quot;&gt;mosdepth&lt;/span&gt;&lt;/div&gt;" style="whiteSpace=wrap;html=1;spacing=0;spacingBottom=0;spacingRight=0;fillColor=#d5e8d4;align=center;strokeColor=#82b366;fontSize=14;" parent="1" vertex="1">
          <mxGeometry x="1305" y="294.5" width="154" height="70" as="geometry" />
        </mxCell>
        <mxCell id="f5diOmF-kt-5KAbiULR1-18" value="&amp;nbsp;VCF&amp;nbsp; &amp;nbsp;Germline SNV" style="verticalLabelPosition=middle;verticalAlign=middle;html=1;shape=mxgraph.basic.layered_rect;dx=10;outlineConnect=0;whiteSpace=wrap;labelPosition=center;align=center;spacing=2;spacingBottom=5;spacingRight=10;fontColor=#1A1A1A;fontSize=14;" parent="1" vertex="1">
          <mxGeometry x="836" y="732" width="109" height="60" as="geometry" />
        </mxCell>
        <mxCell id="f5diOmF-kt-5KAbiULR1-19" value="" style="edgeStyle=orthogonalEdgeStyle;rounded=0;orthogonalLoop=1;jettySize=auto;html=1;" parent="1" source="f5diOmF-kt-5KAbiULR1-20" target="f5diOmF-kt-5KAbiULR1-51" edge="1">
          <mxGeometry relative="1" as="geometry" />
        </mxCell>
        <mxCell id="f5diOmF-kt-5KAbiULR1-20" value="FASTQ" style="verticalLabelPosition=middle;verticalAlign=middle;html=1;shape=mxgraph.basic.layered_rect;dx=10;outlineConnect=0;whiteSpace=wrap;labelPosition=center;align=center;spacing=2;spacingBottom=5;spacingRight=10;fontSize=14;" parent="1" vertex="1">
          <mxGeometry x="1490" y="178.35" width="100" height="60" as="geometry" />
        </mxCell>
        <mxCell id="f5diOmF-kt-5KAbiULR1-21" value="" style="edgeStyle=orthogonalEdgeStyle;rounded=0;orthogonalLoop=1;jettySize=auto;html=1;" parent="1" source="f5diOmF-kt-5KAbiULR1-22" target="f5diOmF-kt-5KAbiULR1-24" edge="1">
          <mxGeometry relative="1" as="geometry" />
        </mxCell>
        <mxCell id="f5diOmF-kt-5KAbiULR1-22" value="POD5" style="verticalLabelPosition=middle;verticalAlign=middle;html=1;shape=mxgraph.basic.layered_rect;dx=10;outlineConnect=0;whiteSpace=wrap;labelPosition=center;align=center;spacing=2;spacingBottom=5;spacingRight=10;fontSize=14;strokeColor=#1A1A1A;strokeWidth=3;" parent="1" vertex="1">
          <mxGeometry x="280" y="179" width="100" height="60" as="geometry" />
        </mxCell>
        <mxCell id="f5diOmF-kt-5KAbiULR1-23" value="" style="edgeStyle=orthogonalEdgeStyle;rounded=0;orthogonalLoop=1;jettySize=auto;html=1;fontColor=#1A1A1A;fontSize=14;" parent="1" source="f5diOmF-kt-5KAbiULR1-24" target="f5diOmF-kt-5KAbiULR1-26" edge="1">
          <mxGeometry relative="1" as="geometry" />
        </mxCell>
        <mxCell id="f5diOmF-kt-5KAbiULR1-24" value="&lt;div style=&quot;line-height: 100%; font-size: 14px;&quot;&gt;&lt;b style=&quot;font-size: 14px;&quot;&gt;Basecalling / Methylation Calling&lt;/b&gt;&lt;/div&gt;&lt;div style=&quot;line-height: 100%; font-size: 14px;&quot;&gt;Dorado&lt;/div&gt;" style="whiteSpace=wrap;html=1;spacing=0;spacingBottom=0;spacingRight=0;fillColor=#e1d5e7;align=center;strokeColor=#9673a6;fontSize=14;" parent="1" vertex="1">
          <mxGeometry x="415" y="179" width="150" height="60" as="geometry" />
        </mxCell>
        <mxCell id="f5diOmF-kt-5KAbiULR1-25" value="" style="edgeStyle=orthogonalEdgeStyle;rounded=0;orthogonalLoop=1;jettySize=auto;html=1;fontColor=#1A1A1A;fontSize=14;" parent="1" source="f5diOmF-kt-5KAbiULR1-26" target="f5diOmF-kt-5KAbiULR1-28" edge="1">
          <mxGeometry relative="1" as="geometry" />
        </mxCell>
        <mxCell id="SGbcWbmZrclR2duvIvgP-34" value="" style="edgeStyle=orthogonalEdgeStyle;rounded=0;orthogonalLoop=1;jettySize=auto;html=1;" edge="1" parent="1" source="f5diOmF-kt-5KAbiULR1-26" target="f5diOmF-kt-5KAbiULR1-79">
          <mxGeometry relative="1" as="geometry">
            <Array as="points">
              <mxPoint x="1140" y="209" />
              <mxPoint x="1140" y="209" />
            </Array>
          </mxGeometry>
        </mxCell>
        <mxCell id="f5diOmF-kt-5KAbiULR1-26" value="Unaligned BAM" style="verticalLabelPosition=middle;verticalAlign=middle;html=1;shape=mxgraph.basic.layered_rect;dx=10;outlineConnect=0;whiteSpace=wrap;labelPosition=center;align=center;spacing=2;spacingBottom=5;spacingRight=10;fontSize=14;strokeColor=#1A1A1A;strokeWidth=3;" parent="1" vertex="1">
          <mxGeometry x="608.25" y="179" width="100" height="60" as="geometry" />
        </mxCell>
        <mxCell id="f5diOmF-kt-5KAbiULR1-27" value="" style="edgeStyle=orthogonalEdgeStyle;rounded=0;orthogonalLoop=1;jettySize=auto;html=1;fontSize=14;" parent="1" source="f5diOmF-kt-5KAbiULR1-28" target="f5diOmF-kt-5KAbiULR1-48" edge="1">
          <mxGeometry relative="1" as="geometry">
            <Array as="points">
              <mxPoint x="811" y="320" />
            </Array>
          </mxGeometry>
        </mxCell>
        <mxCell id="f5diOmF-kt-5KAbiULR1-28" value="&lt;div style=&quot;line-height: 100%; font-size: 14px;&quot;&gt;&lt;b style=&quot;font-size: 14px;&quot;&gt;Filtering&lt;/b&gt;&lt;/div&gt;&lt;div style=&quot;line-height: 100%; font-size: 14px;&quot;&gt;Pysam&lt;/div&gt;" style="whiteSpace=wrap;html=1;spacing=0;spacingBottom=0;spacingRight=0;fillColor=#e1d5e7;align=center;strokeColor=#9673a6;fontSize=14;" parent="1" vertex="1">
          <mxGeometry x="598.25" y="287" width="120" height="60" as="geometry" />
        </mxCell>
        <mxCell id="f5diOmF-kt-5KAbiULR1-29" value="" style="edgeStyle=orthogonalEdgeStyle;rounded=0;orthogonalLoop=1;jettySize=auto;html=1;fontColor=#1A1A1A;fontSize=14;entryX=0.49;entryY=0.01;entryDx=0;entryDy=0;entryPerimeter=0;exitX=0;exitY=0;exitDx=59.625;exitDy=69.5;exitPerimeter=0;" parent="1" source="f5diOmF-kt-5KAbiULR1-87" target="f5diOmF-kt-5KAbiULR1-101" edge="1">
          <mxGeometry relative="1" as="geometry">
            <Array as="points">
              <mxPoint x="1130" y="356" />
              <mxPoint x="1130" y="390" />
              <mxPoint x="1220" y="390" />
              <mxPoint x="1220" y="551" />
              <mxPoint x="1460" y="551" />
            </Array>
            <mxPoint x="1598" y="632" as="targetPoint" />
            <mxPoint x="1188" y="381" as="sourcePoint" />
          </mxGeometry>
        </mxCell>
        <mxCell id="f5diOmF-kt-5KAbiULR1-31" value="" style="edgeStyle=orthogonalEdgeStyle;rounded=0;orthogonalLoop=1;jettySize=auto;html=1;" parent="1" target="f5diOmF-kt-5KAbiULR1-10" edge="1">
          <mxGeometry relative="1" as="geometry">
            <Array as="points">
              <mxPoint x="1130" y="351" />
              <mxPoint x="1130" y="390" />
              <mxPoint x="820" y="390" />
            </Array>
            <mxPoint x="1140.75" y="351" as="sourcePoint" />
          </mxGeometry>
        </mxCell>
        <mxCell id="f5diOmF-kt-5KAbiULR1-32" value="" style="edgeStyle=orthogonalEdgeStyle;rounded=0;orthogonalLoop=1;jettySize=auto;html=1;" parent="1" target="f5diOmF-kt-5KAbiULR1-62" edge="1">
          <mxGeometry relative="1" as="geometry">
            <Array as="points">
              <mxPoint x="1130" y="351" />
              <mxPoint x="1130" y="390" />
              <mxPoint x="528" y="390" />
            </Array>
            <mxPoint x="1140.75" y="351" as="sourcePoint" />
          </mxGeometry>
        </mxCell>
        <mxCell id="f5diOmF-kt-5KAbiULR1-33" value="" style="edgeStyle=orthogonalEdgeStyle;rounded=0;orthogonalLoop=1;jettySize=auto;html=1;entryX=0;entryY=0;entryDx=45;entryDy=0;entryPerimeter=0;" parent="1" target="f5diOmF-kt-5KAbiULR1-60" edge="1">
          <mxGeometry relative="1" as="geometry">
            <mxPoint x="1140.75" y="351" as="sourcePoint" />
            <mxPoint x="360" y="451" as="targetPoint" />
            <Array as="points">
              <mxPoint x="1130" y="351" />
              <mxPoint x="1130" y="390" />
              <mxPoint x="376" y="390" />
            </Array>
          </mxGeometry>
        </mxCell>
        <mxCell id="f5diOmF-kt-5KAbiULR1-34" value="" style="edgeStyle=orthogonalEdgeStyle;rounded=0;orthogonalLoop=1;jettySize=auto;html=1;" parent="1" target="f5diOmF-kt-5KAbiULR1-73" edge="1">
          <mxGeometry relative="1" as="geometry">
            <Array as="points">
              <mxPoint x="1130" y="351" />
              <mxPoint x="1130" y="390" />
              <mxPoint x="1065" y="390" />
            </Array>
            <mxPoint x="1140.75" y="351" as="sourcePoint" />
          </mxGeometry>
        </mxCell>
        <mxCell id="f5diOmF-kt-5KAbiULR1-43" value="METHYLATION ANALYSIS" style="text;html=1;strokeColor=none;fillColor=none;align=right;verticalAlign=middle;whiteSpace=wrap;rounded=0;fontSize=18;fontStyle=1" parent="1" vertex="1">
          <mxGeometry x="1175" y="598" width="236.25" height="30" as="geometry" />
        </mxCell>
        <mxCell id="f5diOmF-kt-5KAbiULR1-44" value="&lt;span style=&quot;color: rgb(0, 0, 0); font-family: Helvetica; font-size: 18px; font-style: normal; font-variant-ligatures: normal; font-variant-caps: normal; font-weight: 700; letter-spacing: normal; orphans: 2; text-indent: 0px; text-transform: none; widows: 2; word-spacing: 0px; -webkit-text-stroke-width: 0px; text-decoration-thickness: initial; text-decoration-style: initial; text-decoration-color: initial; float: none; display: inline !important;&quot;&gt;VARIANTS ANALYSIS&lt;/span&gt;" style="text;whiteSpace=wrap;html=1;fontSize=18;align=center;labelBackgroundColor=none;" parent="1" vertex="1">
          <mxGeometry x="592" y="421" width="210" height="30" as="geometry" />
        </mxCell>
        <mxCell id="f5diOmF-kt-5KAbiULR1-46" value="&lt;div style=&quot;line-height: 100%; font-size: 14px;&quot;&gt;&lt;b style=&quot;background-color: initial; font-size: 14px;&quot;&gt;SNV Annotation &amp;amp; Effect Prediction&lt;/b&gt;&lt;/div&gt;&lt;div style=&quot;line-height: 100%; font-size: 14px;&quot;&gt;SnpEff&lt;/div&gt;" style="verticalLabelPosition=middle;verticalAlign=middle;html=1;shape=mxgraph.basic.rect;fillColor2=none;strokeWidth=1;size=20;indent=65.78;align=center;fontStyle=0;labelPosition=center;horizontal=1;spacing=0;spacingTop=0;fillColor=#BEC4EB;strokeColor=#7E8AD6;gradientColor=none;spacingBottom=0;fontColor=#1A1A1A;fontSize=14;whiteSpace=wrap;" parent="1" vertex="1">
          <mxGeometry x="365" y="891.5" width="170" height="70" as="geometry" />
        </mxCell>
        <mxCell id="SGbcWbmZrclR2duvIvgP-31" value="" style="edgeStyle=orthogonalEdgeStyle;rounded=0;orthogonalLoop=1;jettySize=auto;html=1;" edge="1" parent="1" source="f5diOmF-kt-5KAbiULR1-48" target="f5diOmF-kt-5KAbiULR1-87">
          <mxGeometry relative="1" as="geometry">
            <Array as="points">
              <mxPoint x="1070" y="325" />
              <mxPoint x="1070" y="325" />
            </Array>
          </mxGeometry>
        </mxCell>
        <mxCell id="f5diOmF-kt-5KAbiULR1-48" value="&lt;div style=&quot;line-height: 100%; font-size: 14px;&quot;&gt;&lt;div style=&quot;line-height: 14px;&quot;&gt;&lt;b&gt;Alignment&lt;/b&gt;&lt;/div&gt;&lt;div style=&quot;line-height: 14px;&quot;&gt;Dorado aligner&lt;/div&gt;&lt;/div&gt;" style="whiteSpace=wrap;html=1;spacing=0;spacingBottom=0;spacingRight=0;fillColor=#e1d5e7;align=center;strokeColor=#9673a6;fontSize=14;" parent="1" vertex="1">
          <mxGeometry x="811.77" y="290" width="120" height="60" as="geometry" />
        </mxCell>
        <mxCell id="f5diOmF-kt-5KAbiULR1-49" value="" style="edgeStyle=orthogonalEdgeStyle;rounded=0;orthogonalLoop=1;jettySize=auto;html=1;" parent="1" edge="1">
          <mxGeometry relative="1" as="geometry">
            <mxPoint x="901.4545454545453" y="965.5" as="sourcePoint" />
            <mxPoint x="901.5652173913045" y="1000.5" as="targetPoint" />
          </mxGeometry>
        </mxCell>
        <mxCell id="f5diOmF-kt-5KAbiULR1-50" value="&lt;div style=&quot;line-height: 100%; font-size: 14px;&quot;&gt;&lt;b style=&quot;font-size: 14px;&quot;&gt;Phasing &amp;amp;&lt;/b&gt;&lt;/div&gt;&lt;div style=&quot;line-height: 100%; font-size: 14px;&quot;&gt;&lt;b style=&quot;background-color: initial;&quot;&gt;Haplotagging&lt;/b&gt;&lt;/div&gt;&lt;div style=&quot;line-height: 100%; font-size: 14px;&quot;&gt;WhatsHap&lt;/div&gt;" style="verticalLabelPosition=middle;verticalAlign=middle;html=1;shape=mxgraph.basic.rect;fillColor2=none;strokeWidth=1;size=0;indent=65.78;align=center;fontStyle=0;labelPosition=center;horizontal=1;spacing=0;spacingTop=0;fillColor=#BEC4EB;strokeColor=#7E8AD6;gradientColor=none;spacingBottom=0;fontColor=#1A1A1A;spacingLeft=0;spacingRight=0;fontSize=14;" parent="1" vertex="1">
          <mxGeometry x="829" y="895.5" width="149" height="70" as="geometry" />
        </mxCell>
        <mxCell id="f5diOmF-kt-5KAbiULR1-51" value="&lt;div style=&quot;line-height: 120%; font-size: 14px;&quot; align=&quot;center&quot;&gt;&lt;b style=&quot;font-size: 14px;&quot;&gt;Quality Control&lt;/b&gt;&lt;/div&gt;&lt;div style=&quot;line-height: 120%; font-size: 14px;&quot; align=&quot;center&quot;&gt;FastQC, FastQ Screen&lt;/div&gt;" style="whiteSpace=wrap;html=1;spacing=0;spacingBottom=0;spacingRight=0;fillColor=#d5e8d4;align=center;strokeColor=#82b366;fontSize=14;" parent="1" vertex="1">
          <mxGeometry x="1641.63" y="178.35" width="152.75" height="60" as="geometry" />
        </mxCell>
        <mxCell id="f5diOmF-kt-5KAbiULR1-55" value="" style="edgeStyle=orthogonalEdgeStyle;rounded=0;orthogonalLoop=1;jettySize=auto;html=1;" parent="1" source="f5diOmF-kt-5KAbiULR1-56" target="f5diOmF-kt-5KAbiULR1-63" edge="1">
          <mxGeometry relative="1" as="geometry" />
        </mxCell>
        <mxCell id="f5diOmF-kt-5KAbiULR1-56" value="&lt;div style=&quot;line-height: 100%; font-size: 14px;&quot;&gt;&lt;b style=&quot;font-size: 14px;&quot;&gt;&amp;nbsp;&lt;/b&gt;&lt;b style=&quot;background-color: initial; font-size: 14px;&quot;&gt;SNV Calling&lt;/b&gt;&lt;/div&gt;&lt;div style=&quot;line-height: 100%; font-size: 14px;&quot;&gt;ClairS&lt;/div&gt;" style="verticalLabelPosition=middle;verticalAlign=middle;html=1;shape=mxgraph.basic.rect;fillColor2=none;strokeWidth=1;size=20;indent=65.78;align=center;fontStyle=0;labelPosition=center;horizontal=1;spacing=0;spacingTop=0;fillColor=#BEC4EB;strokeColor=#7E8AD6;gradientColor=none;spacingBottom=0;fontColor=#1A1A1A;spacingLeft=0;spacingRight=0;fontSize=14;" parent="1" vertex="1">
          <mxGeometry x="301.75" y="632" width="139" height="60" as="geometry" />
        </mxCell>
        <mxCell id="f5diOmF-kt-5KAbiULR1-57" value="&lt;div style=&quot;line-height: 100%; font-size: 14px;&quot;&gt;&lt;b style=&quot;background-color: initial; font-size: 14px;&quot;&gt;Supplementary Annotation &amp;amp; variants Filtering&lt;/b&gt;&lt;/div&gt;&lt;div style=&quot;line-height: 100%; font-size: 14px;&quot;&gt;SnpSift&lt;/div&gt;" style="verticalLabelPosition=middle;verticalAlign=middle;html=1;shape=mxgraph.basic.rect;fillColor2=none;strokeWidth=1;size=20;indent=65.78;align=center;fontStyle=0;labelPosition=center;horizontal=1;spacing=0;spacingTop=0;fillColor=#BEC4EB;strokeColor=#7E8AD6;gradientColor=none;spacingBottom=0;fontColor=#1A1A1A;fontSize=14;whiteSpace=wrap;" parent="1" vertex="1">
          <mxGeometry x="355" y="996.5" width="190" height="70" as="geometry" />
        </mxCell>
        <mxCell id="f5diOmF-kt-5KAbiULR1-58" value="&lt;div style=&quot;font-size: 14px;&quot;&gt;dbNSFP&lt;br&gt;&lt;/div&gt;&lt;div style=&quot;font-size: 14px;&quot;&gt;ClinVar&lt;/div&gt;" style="text;whiteSpace=wrap;html=1;fontColor=#1A1A1A;fontSize=14;align=left;" parent="1" vertex="1">
          <mxGeometry x="556.5" y="1011.5" width="136" height="40" as="geometry" />
        </mxCell>
        <mxCell id="f5diOmF-kt-5KAbiULR1-59" value="" style="edgeStyle=orthogonalEdgeStyle;rounded=0;orthogonalLoop=1;jettySize=auto;html=1;" parent="1" source="f5diOmF-kt-5KAbiULR1-60" target="f5diOmF-kt-5KAbiULR1-12" edge="1">
          <mxGeometry relative="1" as="geometry" />
        </mxCell>
        <mxCell id="f5diOmF-kt-5KAbiULR1-60" value="Tumor&amp;nbsp;&lt;span style=&quot;background-color: initial;&quot;&gt;BAM&lt;/span&gt;" style="verticalLabelPosition=middle;verticalAlign=middle;html=1;shape=mxgraph.basic.layered_rect;dx=10;outlineConnect=0;whiteSpace=wrap;labelPosition=center;align=center;spacing=2;spacingBottom=10;spacingRight=10;fontColor=#1A1A1A;fontSize=14;" parent="1" vertex="1">
          <mxGeometry x="331" y="458" width="100" height="60" as="geometry" />
        </mxCell>
        <mxCell id="f5diOmF-kt-5KAbiULR1-61" value="" style="edgeStyle=orthogonalEdgeStyle;rounded=0;orthogonalLoop=1;jettySize=auto;html=1;" parent="1" source="f5diOmF-kt-5KAbiULR1-62" target="f5diOmF-kt-5KAbiULR1-12" edge="1">
          <mxGeometry relative="1" as="geometry" />
        </mxCell>
        <mxCell id="f5diOmF-kt-5KAbiULR1-62" value="Normal&amp;nbsp;&lt;span style=&quot;background-color: initial;&quot;&gt;BAM&lt;/span&gt;" style="verticalLabelPosition=middle;verticalAlign=middle;html=1;shape=mxgraph.basic.layered_rect;dx=10;outlineConnect=0;whiteSpace=wrap;labelPosition=center;align=center;spacing=2;spacingBottom=10;spacingRight=10;fontColor=#1A1A1A;fontSize=14;" parent="1" vertex="1">
          <mxGeometry x="478.2500000000001" y="458" width="100" height="60" as="geometry" />
        </mxCell>
        <mxCell id="f5diOmF-kt-5KAbiULR1-63" value="VCF&amp;nbsp; &amp;nbsp;Somatic SNV" style="verticalLabelPosition=middle;verticalAlign=middle;html=1;shape=mxgraph.basic.layered_rect;dx=10;outlineConnect=0;whiteSpace=wrap;labelPosition=center;align=center;spacing=2;spacingBottom=5;spacingRight=10;fontColor=#1A1A1A;fontSize=14;" parent="1" vertex="1">
          <mxGeometry x="321.25" y="732" width="100" height="60" as="geometry" />
        </mxCell>
        <mxCell id="f5diOmF-kt-5KAbiULR1-64" value="VCF&amp;nbsp; &amp;nbsp;Somatic SV" style="verticalLabelPosition=middle;verticalAlign=middle;html=1;shape=mxgraph.basic.layered_rect;dx=10;outlineConnect=0;whiteSpace=wrap;labelPosition=center;align=center;spacing=2;spacingBottom=5;spacingRight=10;fontColor=#1A1A1A;fontSize=14;" parent="1" vertex="1">
          <mxGeometry x="493.25" y="732" width="100" height="60" as="geometry" />
        </mxCell>
        <mxCell id="f5diOmF-kt-5KAbiULR1-65" value="VCF Germline SV" style="verticalLabelPosition=middle;verticalAlign=middle;html=1;shape=mxgraph.basic.layered_rect;dx=10;outlineConnect=0;whiteSpace=wrap;labelPosition=center;align=center;spacing=2;spacingBottom=5;spacingRight=10;fontColor=#1A1A1A;fontSize=14;" parent="1" vertex="1">
          <mxGeometry x="679.5" y="733" width="100" height="60" as="geometry" />
        </mxCell>
        <mxCell id="f5diOmF-kt-5KAbiULR1-66" value="" style="edgeStyle=orthogonalEdgeStyle;rounded=0;orthogonalLoop=1;jettySize=auto;html=1;" parent="1" source="f5diOmF-kt-5KAbiULR1-67" target="f5diOmF-kt-5KAbiULR1-64" edge="1">
          <mxGeometry relative="1" as="geometry" />
        </mxCell>
        <mxCell id="f5diOmF-kt-5KAbiULR1-67" value="&lt;b style=&quot;font-size: 14px;&quot;&gt;SV Calling&lt;/b&gt;&lt;br style=&quot;font-size: 14px;&quot;&gt;&lt;div style=&quot;font-size: 14px;&quot;&gt;nanomonsv&lt;/div&gt;" style="verticalLabelPosition=middle;verticalAlign=middle;html=1;shape=mxgraph.basic.rect;fillColor2=none;strokeWidth=1;size=20;indent=5;align=center;fontStyle=0;labelPosition=center;horizontal=1;spacing=2;spacingTop=0;fillColor=#BEC4EB;strokeColor=#7E8AD6;gradientColor=none;fontColor=#1A1A1A;fontSize=14;" parent="1" vertex="1">
          <mxGeometry x="478.25" y="632" width="130" height="60" as="geometry" />
        </mxCell>
        <mxCell id="f5diOmF-kt-5KAbiULR1-68" value="&lt;div style=&quot;line-height: 100%; font-size: 14px;&quot;&gt;&lt;b style=&quot;background-color: initial; font-size: 14px;&quot;&gt;SV Annotation &amp;amp; Pathogenicity Ranking Score&lt;/b&gt;&lt;/div&gt;&lt;div style=&quot;line-height: 100%; font-size: 14px;&quot;&gt;AnnotSV&lt;/div&gt;" style="verticalLabelPosition=middle;verticalAlign=middle;html=1;shape=mxgraph.basic.rect;fillColor2=none;strokeWidth=1;size=20;indent=65.78;align=center;fontStyle=0;labelPosition=center;horizontal=1;spacing=0;spacingTop=0;fillColor=#BEC4EB;strokeColor=#7E8AD6;gradientColor=none;spacingBottom=0;fontColor=#1A1A1A;fontSize=14;whiteSpace=wrap;" parent="1" vertex="1">
          <mxGeometry x="608.25" y="891.5" width="170" height="67" as="geometry" />
        </mxCell>
        <mxCell id="f5diOmF-kt-5KAbiULR1-69" value="Somatic Variant Calling" style="text;html=1;align=center;verticalAlign=middle;whiteSpace=wrap;rounded=0;fontColor=default;fontStyle=1;fontSize=16;labelBackgroundColor=none;" parent="1" vertex="1">
          <mxGeometry x="365" y="596" width="180" height="30" as="geometry" />
        </mxCell>
        <mxCell id="f5diOmF-kt-5KAbiULR1-70" value="Germline Variant Calling" style="text;html=1;align=center;verticalAlign=middle;whiteSpace=wrap;rounded=0;fontColor=default;fontStyle=1;fontSize=16;labelBackgroundColor=none;movable=1;resizable=1;rotatable=1;deletable=1;editable=1;locked=0;connectable=1;" parent="1" vertex="1">
          <mxGeometry x="720.25" y="596" width="200" height="30" as="geometry" />
        </mxCell>
        <mxCell id="f5diOmF-kt-5KAbiULR1-71" value="&lt;div style=&quot;font-size: 14px;&quot;&gt;CNVs &amp;gt; 100 kb&lt;/div&gt;" style="text;whiteSpace=wrap;html=1;fontColor=#1A1A1A;fontSize=14;align=center;" parent="1" vertex="1">
          <mxGeometry x="995" y="656" width="137" height="40" as="geometry" />
        </mxCell>
        <mxCell id="f5diOmF-kt-5KAbiULR1-72" value="Haplotagged&amp;nbsp;&lt;div&gt;BAM&lt;/div&gt;" style="verticalLabelPosition=middle;verticalAlign=middle;html=1;shape=mxgraph.basic.layered_rect;dx=10;outlineConnect=0;whiteSpace=wrap;labelPosition=center;align=center;spacing=2;spacingBottom=5;spacingRight=10;fontColor=#1A1A1A;fontSize=14;" parent="1" vertex="1">
          <mxGeometry x="851.25" y="1000.5" width="106.5" height="60" as="geometry" />
        </mxCell>
        <mxCell id="f5diOmF-kt-5KAbiULR1-73" value="&lt;div style=&quot;line-height: 100%; font-size: 14px;&quot;&gt;&lt;b style=&quot;font-size: 14px;&quot;&gt;&amp;nbsp;Large C&lt;/b&gt;&lt;b style=&quot;background-color: initial; font-size: 14px;&quot;&gt;NV Calling&lt;/b&gt;&lt;/div&gt;&lt;div style=&quot;line-height: 100%; font-size: 14px;&quot;&gt;Spectre&lt;/div&gt;" style="verticalLabelPosition=middle;verticalAlign=middle;html=1;shape=mxgraph.basic.rect;fillColor2=none;strokeWidth=1;size=20;indent=65.78;align=center;fontStyle=0;labelPosition=center;horizontal=1;spacing=0;spacingTop=0;fillColor=#BEC4EB;strokeColor=#7E8AD6;gradientColor=none;spacingBottom=0;fontColor=#1A1A1A;spacingLeft=0;spacingRight=0;fontSize=14;" parent="1" vertex="1">
          <mxGeometry x="995" y="593" width="139" height="60" as="geometry" />
        </mxCell>
        <mxCell id="f5diOmF-kt-5KAbiULR1-75" value="" style="rounded=0;whiteSpace=wrap;html=1;labelBackgroundColor=#D5E8D4;labelBorderColor=none;fillColor=#A9C4EB;gradientColor=none;strokeColor=none;fillStyle=solid;opacity=40;glass=0;shadow=0;fontSize=14;movable=1;resizable=1;rotatable=1;deletable=1;editable=1;locked=0;connectable=1;" parent="1" vertex="1">
          <mxGeometry x="340" y="1108" width="460" height="120" as="geometry" />
        </mxCell>
        <mxCell id="f5diOmF-kt-5KAbiULR1-76" value="&lt;div style=&quot;line-height: 100%; font-size: 14px;&quot;&gt;&lt;b style=&quot;background-color: initial; font-size: 14px;&quot;&gt;SV graphs&lt;/b&gt;&lt;/div&gt;&lt;div style=&quot;line-height: 100%; font-size: 14px;&quot;&gt;Sniffles2_plot&lt;/div&gt;" style="verticalLabelPosition=middle;verticalAlign=middle;html=1;shape=mxgraph.basic.rect;fillColor2=none;strokeWidth=1;size=20;indent=65.78;align=center;fontStyle=0;labelPosition=center;horizontal=1;spacing=0;spacingTop=0;fillColor=#BEC4EB;strokeColor=#7E8AD6;gradientColor=none;spacingBottom=0;fontColor=#1A1A1A;fontSize=14;whiteSpace=wrap;" parent="1" vertex="1">
          <mxGeometry x="608.25" y="1118.5" width="170" height="67" as="geometry" />
        </mxCell>
        <mxCell id="f5diOmF-kt-5KAbiULR1-77" value="&lt;div style=&quot;line-height: 100%; font-size: 14px;&quot;&gt;&lt;b&gt;SNV graphs&lt;/b&gt;&lt;/div&gt;&lt;div style=&quot;line-height: 100%; font-size: 14px;&quot;&gt;vcf2maf, maftools (R)&lt;/div&gt;" style="verticalLabelPosition=middle;verticalAlign=middle;html=1;shape=mxgraph.basic.rect;fillColor2=none;strokeWidth=1;size=20;indent=65.78;align=center;fontStyle=0;labelPosition=center;horizontal=1;spacing=0;spacingTop=0;fillColor=#BEC4EB;strokeColor=#7E8AD6;gradientColor=none;spacingBottom=0;fontColor=#1A1A1A;fontSize=14;whiteSpace=wrap;" parent="1" vertex="1">
          <mxGeometry x="365" y="1118.5" width="170" height="67" as="geometry" />
        </mxCell>
        <mxCell id="f5diOmF-kt-5KAbiULR1-78" value="" style="edgeStyle=orthogonalEdgeStyle;rounded=0;orthogonalLoop=1;jettySize=auto;html=1;" parent="1" source="f5diOmF-kt-5KAbiULR1-79" target="f5diOmF-kt-5KAbiULR1-20" edge="1">
          <mxGeometry relative="1" as="geometry" />
        </mxCell>
        <mxCell id="f5diOmF-kt-5KAbiULR1-79" value="&lt;div style=&quot;line-height: 120%; font-size: 14px;&quot; align=&quot;center&quot;&gt;&lt;b&gt;BAM conversion to FASTQ&lt;/b&gt;&lt;/div&gt;&lt;div style=&quot;line-height: 120%; font-size: 14px;&quot; align=&quot;center&quot;&gt;&lt;i&gt;samtools fastq&lt;/i&gt;&lt;/div&gt;" style="whiteSpace=wrap;html=1;spacing=0;spacingBottom=0;spacingRight=0;fillColor=#d5e8d4;align=center;strokeColor=#82b366;fontSize=14;" parent="1" vertex="1">
          <mxGeometry x="1305" y="178.35" width="124" height="60" as="geometry" />
        </mxCell>
        <mxCell id="f5diOmF-kt-5KAbiULR1-80" value="Annotation" style="text;html=1;align=center;verticalAlign=middle;whiteSpace=wrap;rounded=0;fontColor=default;fontStyle=1;fontSize=16;labelBackgroundColor=none;" parent="1" vertex="1">
          <mxGeometry x="652.5" y="1060.5" width="180" height="30" as="geometry" />
        </mxCell>
        <mxCell id="f5diOmF-kt-5KAbiULR1-81" value="Graphs" style="text;html=1;align=right;verticalAlign=middle;whiteSpace=wrap;rounded=0;fontColor=default;fontStyle=1;fontSize=16;labelBackgroundColor=none;" parent="1" vertex="1">
          <mxGeometry x="603.25" y="1192" width="180" height="30" as="geometry" />
        </mxCell>
        <mxCell id="f5diOmF-kt-5KAbiULR1-82" value="QUALITY CONTROL" style="text;html=1;align=right;verticalAlign=middle;whiteSpace=wrap;rounded=0;fontColor=default;fontStyle=1;fontSize=18;labelBackgroundColor=none;movable=1;resizable=1;rotatable=1;deletable=1;editable=1;locked=0;connectable=1;" parent="1" vertex="1">
          <mxGeometry x="1240.62" y="116" width="212.75" height="30" as="geometry" />
        </mxCell>
        <mxCell id="f5diOmF-kt-5KAbiULR1-83" value="PRE-PROCESSING" style="text;html=1;align=center;verticalAlign=middle;whiteSpace=wrap;rounded=0;fontColor=default;fontStyle=1;fontSize=18;labelBackgroundColor=none;movable=1;resizable=1;rotatable=1;deletable=1;editable=1;locked=0;connectable=1;" parent="1" vertex="1">
          <mxGeometry x="220" y="116" width="200" height="30" as="geometry" />
        </mxCell>
        <mxCell id="f5diOmF-kt-5KAbiULR1-85" value="Annotated VCF files and graphs" style="verticalLabelPosition=middle;verticalAlign=middle;html=1;shape=mxgraph.basic.layered_rect;dx=10;outlineConnect=0;whiteSpace=wrap;labelPosition=center;align=center;spacing=2;spacingBottom=5;spacingRight=10;fontColor=#1A1A1A;fontSize=14;" parent="1" vertex="1">
          <mxGeometry x="838" y="1125.5" width="131" height="85" as="geometry" />
        </mxCell>
        <mxCell id="f5diOmF-kt-5KAbiULR1-86" value="&lt;span style=&quot;font-size: 22px; font-weight: 700;&quot;&gt;BIGR LONG READS BULK PIPELINE&lt;/span&gt;" style="rounded=1;whiteSpace=wrap;html=1;" parent="1" vertex="1">
          <mxGeometry x="200" y="30" width="1620" height="60" as="geometry" />
        </mxCell>
        <mxCell id="SGbcWbmZrclR2duvIvgP-23" value="" style="edgeStyle=orthogonalEdgeStyle;rounded=0;orthogonalLoop=1;jettySize=auto;html=1;" edge="1" parent="1" source="f5diOmF-kt-5KAbiULR1-87" target="f5diOmF-kt-5KAbiULR1-17">
          <mxGeometry relative="1" as="geometry">
            <Array as="points">
              <mxPoint x="1280" y="330" />
              <mxPoint x="1280" y="330" />
            </Array>
          </mxGeometry>
        </mxCell>
        <mxCell id="f5diOmF-kt-5KAbiULR1-87" value="Aligned&lt;div&gt;BAM&lt;/div&gt;" style="verticalLabelPosition=middle;verticalAlign=middle;html=1;shape=mxgraph.basic.layered_rect;dx=10;outlineConnect=0;whiteSpace=wrap;labelPosition=center;align=center;spacing=2;spacingBottom=5;spacingRight=10;fontSize=14;strokeWidth=3;strokeColor=#1A1A1A;" parent="1" vertex="1">
          <mxGeometry x="1080" y="287" width="109.25" height="69.5" as="geometry" />
        </mxCell>
        <mxCell id="f5diOmF-kt-5KAbiULR1-101" value="&lt;div style=&quot;line-height: 100%; font-size: 14px;&quot;&gt;&lt;b style=&quot;font-size: 14px;&quot;&gt;Splitting&lt;/b&gt;&lt;/div&gt;&lt;div style=&quot;line-height: 100%; font-size: 14px;&quot;&gt;&lt;b style=&quot;font-size: 14px;&quot;&gt;&amp;amp;&amp;nbsp;&lt;/b&gt;&lt;/div&gt;&lt;div style=&quot;line-height: 100%; font-size: 14px;&quot;&gt;&lt;b style=&quot;font-size: 14px;&quot;&gt;Aggregation&lt;/b&gt;&lt;/div&gt;&lt;div style=&quot;line-height: 100%; font-size: 14px;&quot;&gt;Modkit&lt;/div&gt;" style="whiteSpace=wrap;html=1;spacing=0;spacingBottom=0;spacingRight=0;fillColor=#B0E3E6;align=center;strokeColor=#67AB9F;fontColor=#1A1A1A;fontSize=14;" parent="1" vertex="1">
          <mxGeometry x="1386" y="633" width="150" height="70" as="geometry" />
        </mxCell>
        <mxCell id="f5diOmF-kt-5KAbiULR1-102" value="" style="edgeStyle=orthogonalEdgeStyle;rounded=0;orthogonalLoop=1;jettySize=auto;html=1;entryX=0.5;entryY=0;entryDx=0;entryDy=0;" parent="1" source="f5diOmF-kt-5KAbiULR1-103" target="f5diOmF-kt-5KAbiULR1-104" edge="1">
          <mxGeometry relative="1" as="geometry">
            <Array as="points" />
            <mxPoint x="1465" y="796" as="sourcePoint" />
            <mxPoint x="1471" y="828" as="targetPoint" />
          </mxGeometry>
        </mxCell>
        <mxCell id="f5diOmF-kt-5KAbiULR1-103" value="BEDMethyl" style="verticalLabelPosition=middle;verticalAlign=middle;html=1;shape=mxgraph.basic.layered_rect;dx=10;outlineConnect=0;whiteSpace=wrap;labelPosition=center;align=center;spacing=2;spacingBottom=5;spacingRight=10;strokeColor=#4D4D4D;fontColor=#1A1A1A;fontSize=14;" parent="1" vertex="1">
          <mxGeometry x="1414" y="736" width="100" height="60" as="geometry" />
        </mxCell>
        <mxCell id="f5diOmF-kt-5KAbiULR1-104" value="Computing relative methylation level depending on specific regions" style="whiteSpace=wrap;html=1;spacing=0;spacingBottom=0;spacingRight=0;fillColor=#B0E3E6;align=center;strokeColor=#67AB9F;fontColor=#1A1A1A;fontSize=14;fontStyle=1" parent="1" vertex="1">
          <mxGeometry x="1334" y="856" width="260" height="58" as="geometry" />
        </mxCell>
        <mxCell id="f5diOmF-kt-5KAbiULR1-105" value="" style="edgeStyle=orthogonalEdgeStyle;rounded=0;orthogonalLoop=1;jettySize=auto;html=1;" parent="1" source="f5diOmF-kt-5KAbiULR1-106" target="f5diOmF-kt-5KAbiULR1-107" edge="1">
          <mxGeometry relative="1" as="geometry" />
        </mxCell>
        <mxCell id="f5diOmF-kt-5KAbiULR1-106" value="Differentially Methylated Regions analysis&lt;div&gt;&lt;span style=&quot;font-weight: normal;&quot;&gt;GeneDMRs&lt;/span&gt;&lt;/div&gt;" style="whiteSpace=wrap;html=1;spacing=0;spacingBottom=0;spacingRight=0;fillColor=#B0E3E6;align=center;strokeColor=#67AB9F;fontColor=#1A1A1A;fontSize=14;fontStyle=1" parent="1" vertex="1">
          <mxGeometry x="1382.75" y="1031.5" width="159.25" height="84" as="geometry" />
        </mxCell>
        <mxCell id="f5diOmF-kt-5KAbiULR1-107" value="CSV files with DMRs results and graphs" style="verticalLabelPosition=middle;verticalAlign=middle;html=1;shape=mxgraph.basic.layered_rect;dx=10;outlineConnect=0;whiteSpace=wrap;labelPosition=center;align=center;spacing=2;spacingBottom=5;spacingRight=10;strokeColor=#4D4D4D;fontColor=#1A1A1A;fontSize=14;" parent="1" vertex="1">
          <mxGeometry x="1397.31" y="1153" width="130.13" height="70" as="geometry" />
        </mxCell>
        <mxCell id="f5diOmF-kt-5KAbiULR1-108" value="Mean counts tables" style="verticalLabelPosition=middle;verticalAlign=middle;html=1;shape=mxgraph.basic.layered_rect;dx=10;outlineConnect=0;whiteSpace=wrap;labelPosition=center;align=center;spacing=2;spacingBottom=5;spacingRight=10;strokeColor=#4D4D4D;fontColor=#1A1A1A;fontSize=14;" parent="1" vertex="1">
          <mxGeometry x="1406" y="941" width="112" height="60" as="geometry" />
        </mxCell>
        <mxCell id="f5diOmF-kt-5KAbiULR1-109" value="" style="edgeStyle=orthogonalEdgeStyle;rounded=0;orthogonalLoop=1;jettySize=auto;html=1;exitX=0.516;exitY=0.993;exitDx=0;exitDy=0;exitPerimeter=0;" parent="1" source="f5diOmF-kt-5KAbiULR1-101" edge="1">
          <mxGeometry relative="1" as="geometry">
            <Array as="points">
              <mxPoint x="1464" y="703" />
            </Array>
            <mxPoint x="1464" y="704" as="sourcePoint" />
            <mxPoint x="1464" y="736" as="targetPoint" />
          </mxGeometry>
        </mxCell>
        <mxCell id="f5diOmF-kt-5KAbiULR1-110" value="" style="edgeStyle=orthogonalEdgeStyle;rounded=0;orthogonalLoop=1;jettySize=auto;html=1;exitX=0.492;exitY=0.987;exitDx=0;exitDy=0;exitPerimeter=0;" parent="1" source="f5diOmF-kt-5KAbiULR1-104" target="f5diOmF-kt-5KAbiULR1-108" edge="1">
          <mxGeometry relative="1" as="geometry">
            <Array as="points" />
            <mxPoint x="1471" y="887" as="sourcePoint" />
            <mxPoint x="1462" y="912" as="targetPoint" />
          </mxGeometry>
        </mxCell>
        <mxCell id="f5diOmF-kt-5KAbiULR1-111" value="" style="edgeStyle=orthogonalEdgeStyle;rounded=0;orthogonalLoop=1;jettySize=auto;html=1;exitX=0.5;exitY=0.9;exitDx=0;exitDy=0;exitPerimeter=0;entryX=0.5;entryY=0;entryDx=0;entryDy=0;" parent="1" source="f5diOmF-kt-5KAbiULR1-108" target="f5diOmF-kt-5KAbiULR1-106" edge="1">
          <mxGeometry relative="1" as="geometry">
            <Array as="points" />
            <mxPoint x="1462" y="977" as="sourcePoint" />
            <mxPoint x="1462" y="1010" as="targetPoint" />
          </mxGeometry>
        </mxCell>
        <mxCell id="f5diOmF-kt-5KAbiULR1-113" value="Paired Samples" style="text;html=1;align=center;verticalAlign=middle;whiteSpace=wrap;rounded=0;fontColor=default;fontStyle=1;fontSize=16;labelBackgroundColor=none;movable=1;resizable=1;rotatable=1;deletable=1;editable=1;locked=0;connectable=1;" parent="1" vertex="1">
          <mxGeometry x="1284" y="811" width="130" height="30" as="geometry" />
        </mxCell>
        <mxCell id="f5diOmF-kt-5KAbiULR1-114" value="Two Conditions" style="text;html=1;align=center;verticalAlign=middle;whiteSpace=wrap;rounded=0;fontColor=default;fontStyle=1;fontSize=16;labelBackgroundColor=none;movable=1;resizable=1;rotatable=1;deletable=1;editable=1;locked=0;connectable=1;" parent="1" vertex="1">
          <mxGeometry x="1531" y="811" width="126" height="30" as="geometry" />
        </mxCell>
        <mxCell id="SGbcWbmZrclR2duvIvgP-25" value="" style="edgeStyle=orthogonalEdgeStyle;rounded=0;orthogonalLoop=1;jettySize=auto;html=1;" edge="1" parent="1" source="f5diOmF-kt-5KAbiULR1-118" target="f5diOmF-kt-5KAbiULR1-129">
          <mxGeometry relative="1" as="geometry" />
        </mxCell>
        <mxCell id="f5diOmF-kt-5KAbiULR1-118" value="&lt;div style=&quot;line-height: 120%; font-size: 14px;&quot; align=&quot;center&quot;&gt;&lt;b style=&quot;font-size: 14px;&quot;&gt;Quality Control Report&lt;br&gt;&lt;/b&gt;&lt;/div&gt;&lt;div style=&quot;line-height: 120%; font-size: 14px;&quot; align=&quot;center&quot;&gt;Multiqc&lt;/div&gt;" style="whiteSpace=wrap;html=1;spacing=0;spacingBottom=0;spacingRight=0;fillColor=#d5e8d4;align=center;strokeColor=#82b366;fontSize=14;" parent="1" vertex="1">
          <mxGeometry x="1639.64" y="299.5" width="162.75" height="60" as="geometry" />
        </mxCell>
        <mxCell id="f5diOmF-kt-5KAbiULR1-120" value="" style="edgeStyle=orthogonalEdgeStyle;rounded=0;orthogonalLoop=1;jettySize=auto;html=1;exitX=0.5;exitY=1;exitDx=0;exitDy=0;entryX=0.487;entryY=-0.008;entryDx=0;entryDy=0;entryPerimeter=0;" parent="1" source="f5diOmF-kt-5KAbiULR1-51" target="f5diOmF-kt-5KAbiULR1-118" edge="1">
          <mxGeometry relative="1" as="geometry">
            <mxPoint x="1711" y="228" as="sourcePoint" />
            <mxPoint x="1677" y="270" as="targetPoint" />
          </mxGeometry>
        </mxCell>
        <mxCell id="SGbcWbmZrclR2duvIvgP-33" value="" style="edgeStyle=orthogonalEdgeStyle;rounded=0;orthogonalLoop=1;jettySize=auto;html=1;" edge="1" parent="1" source="f5diOmF-kt-5KAbiULR1-123">
          <mxGeometry relative="1" as="geometry">
            <mxPoint x="1640" y="330" as="targetPoint" />
            <Array as="points">
              <mxPoint x="1550" y="330" />
            </Array>
          </mxGeometry>
        </mxCell>
        <mxCell id="f5diOmF-kt-5KAbiULR1-123" value="&lt;div&gt;&lt;b&gt;Methylation Quality Control&lt;/b&gt;&lt;/div&gt;Custom Graphs" style="whiteSpace=wrap;html=1;spacing=0;spacingBottom=0;spacingRight=0;fillColor=#d5e8d4;align=center;strokeColor=#82b366;fontSize=14;" parent="1" vertex="1">
          <mxGeometry x="1453.37" y="440" width="200" height="60" as="geometry" />
        </mxCell>
        <mxCell id="f5diOmF-kt-5KAbiULR1-125" value="" style="edgeStyle=orthogonalEdgeStyle;rounded=0;orthogonalLoop=1;jettySize=auto;html=1;exitX=0;exitY=0;exitDx=100;exitDy=35;exitPerimeter=0;" parent="1" source="f5diOmF-kt-5KAbiULR1-103" edge="1">
          <mxGeometry relative="1" as="geometry">
            <mxPoint x="1745" y="431" as="sourcePoint" />
            <mxPoint x="1550" y="501" as="targetPoint" />
            <Array as="points">
              <mxPoint x="1550" y="771" />
              <mxPoint x="1550" y="501" />
            </Array>
          </mxGeometry>
        </mxCell>
        <mxCell id="f5diOmF-kt-5KAbiULR1-129" value="Html Report" style="verticalLabelPosition=middle;verticalAlign=middle;html=1;shape=mxgraph.basic.layered_rect;dx=10;outlineConnect=0;whiteSpace=wrap;labelPosition=center;align=center;spacing=2;spacingBottom=5;spacingRight=10;fontSize=14;" parent="1" vertex="1">
          <mxGeometry x="1671.01" y="440" width="100" height="60" as="geometry" />
        </mxCell>
        <mxCell id="j5wLVgMbEqWTkiokthjQ-2" value="" style="edgeStyle=orthogonalEdgeStyle;rounded=0;orthogonalLoop=1;jettySize=auto;html=1;entryX=0.5;entryY=0;entryDx=0;entryDy=0;exitX=0.442;exitY=1;exitDx=0;exitDy=0;exitPerimeter=0;" parent="1" source="f5diOmF-kt-5KAbiULR1-46" edge="1">
          <mxGeometry relative="1" as="geometry">
            <mxPoint x="440.0000000000001" y="995" as="targetPoint" />
            <mxPoint x="439.9999999999999" y="976" as="sourcePoint" />
          </mxGeometry>
        </mxCell>
        <mxCell id="j5wLVgMbEqWTkiokthjQ-6" value="" style="edgeStyle=orthogonalEdgeStyle;rounded=0;orthogonalLoop=1;jettySize=auto;html=1;exitX=1;exitY=0.5;exitDx=0;exitDy=0;" parent="1" target="f5diOmF-kt-5KAbiULR1-85" edge="1">
          <mxGeometry relative="1" as="geometry">
            <mxPoint x="838" y="1168.7499999999998" as="targetPoint" />
            <mxPoint x="800" y="1167.25" as="sourcePoint" />
            <Array as="points" />
          </mxGeometry>
        </mxCell>
        <mxCell id="SGbcWbmZrclR2duvIvgP-6" value="" style="html=1;shadow=0;dashed=0;align=center;verticalAlign=middle;shape=mxgraph.arrows2.arrow;dy=0.56;dx=36.2;notch=8.8;strokeWidth=3;strokeColor=none;fillColor=#1A1A1A;" vertex="1" parent="1">
          <mxGeometry x="201" y="179" width="80" height="51" as="geometry" />
        </mxCell>
        <mxCell id="SGbcWbmZrclR2duvIvgP-11" value="" style="html=1;shadow=0;dashed=0;align=center;verticalAlign=middle;shape=mxgraph.arrows2.arrow;dy=0.53;dx=38.5;notch=8.8;strokeWidth=3;strokeColor=none;fillColor=#1A1A1A;rotation=90;" vertex="1" parent="1">
          <mxGeometry x="615.25" y="115" width="80" height="51" as="geometry" />
        </mxCell>
        <mxCell id="SGbcWbmZrclR2duvIvgP-13" value="" style="html=1;shadow=0;dashed=0;align=center;verticalAlign=middle;shape=mxgraph.arrows2.arrow;dy=0.43;dx=43.1;notch=8.8;strokeWidth=3;strokeColor=none;fillColor=#1A1A1A;rotation=90;" vertex="1" parent="1">
          <mxGeometry x="1040.5" y="172.5" width="181" height="51" as="geometry" />
        </mxCell>
        <mxCell id="SGbcWbmZrclR2duvIvgP-15" value="INPUT FILE FORMAT" style="verticalLabelPosition=middle;verticalAlign=top;html=1;shape=mxgraph.basic.layered_rect;dx=10;outlineConnect=0;whiteSpace=wrap;labelPosition=center;align=center;spacing=2;spacingBottom=5;spacingRight=10;fontSize=14;strokeColor=#1A1A1A;strokeWidth=3;" vertex="1" parent="1">
          <mxGeometry x="339" y="1296" width="100" height="60" as="geometry" />
        </mxCell>
        <mxCell id="SGbcWbmZrclR2duvIvgP-17" value="&lt;span style=&quot;color: rgb(0, 0, 0); font-family: Helvetica; font-size: 18px; font-style: normal; font-variant-ligatures: normal; font-variant-caps: normal; letter-spacing: normal; orphans: 2; text-indent: 0px; text-transform: none; widows: 2; word-spacing: 0px; -webkit-text-stroke-width: 0px; text-decoration-thickness: initial; text-decoration-style: initial; text-decoration-color: initial; float: none; display: inline !important;&quot;&gt;Pipeline alternative entrypoint&lt;/span&gt;" style="text;whiteSpace=wrap;html=1;fontSize=18;align=left;labelBackgroundColor=none;fontStyle=0" vertex="1" parent="1">
          <mxGeometry x="450.25" y="1309.5" width="249.75" height="30" as="geometry" />
        </mxCell>
        <mxCell id="SGbcWbmZrclR2duvIvgP-18" value="FILE FORMAT" style="verticalLabelPosition=middle;verticalAlign=middle;html=1;shape=mxgraph.basic.layered_rect;dx=10;outlineConnect=0;whiteSpace=wrap;labelPosition=center;align=center;spacing=2;spacingBottom=5;spacingRight=10;fontColor=#1A1A1A;fontSize=14;" vertex="1" parent="1">
          <mxGeometry x="760" y="1294.5" width="100" height="60" as="geometry" />
        </mxCell>
        <mxCell id="SGbcWbmZrclR2duvIvgP-19" value="&lt;span style=&quot;color: rgb(0, 0, 0); font-family: Helvetica; font-size: 18px; font-style: normal; font-variant-ligatures: normal; font-variant-caps: normal; letter-spacing: normal; orphans: 2; text-indent: 0px; text-transform: none; widows: 2; word-spacing: 0px; -webkit-text-stroke-width: 0px; text-decoration-thickness: initial; text-decoration-style: initial; text-decoration-color: initial; float: none; display: inline !important;&quot;&gt;File format&lt;/span&gt;" style="text;whiteSpace=wrap;html=1;fontSize=18;align=left;labelBackgroundColor=none;fontStyle=0" vertex="1" parent="1">
          <mxGeometry x="871.25" y="1309.5" width="98.75" height="30" as="geometry" />
        </mxCell>
        <mxCell id="SGbcWbmZrclR2duvIvgP-20" value="&lt;div style=&quot;line-height: 100%; font-size: 14px;&quot;&gt;&lt;b style=&quot;font-size: 14px;&quot;&gt;&amp;nbsp;Step name&lt;/b&gt;&lt;/div&gt;&lt;div style=&quot;line-height: 100%; font-size: 14px;&quot;&gt;Tool(s) used&lt;/div&gt;" style="verticalLabelPosition=middle;verticalAlign=middle;html=1;shape=mxgraph.basic.rect;fillColor2=none;strokeWidth=1;size=20;indent=65.78;align=center;fontStyle=0;labelPosition=center;horizontal=1;spacing=0;spacingTop=0;fillColor=#BEC4EB;strokeColor=#7E8AD6;gradientColor=none;spacingBottom=0;fontColor=#1A1A1A;spacingLeft=0;spacingRight=0;fontSize=14;" vertex="1" parent="1">
          <mxGeometry x="1040" y="1294.5" width="100.75" height="60" as="geometry" />
        </mxCell>
        <mxCell id="SGbcWbmZrclR2duvIvgP-21" value="&lt;span style=&quot;color: rgb(0, 0, 0); font-family: Helvetica; font-size: 18px; font-style: normal; font-variant-ligatures: normal; font-variant-caps: normal; letter-spacing: normal; orphans: 2; text-indent: 0px; text-transform: none; widows: 2; word-spacing: 0px; -webkit-text-stroke-width: 0px; text-decoration-thickness: initial; text-decoration-style: initial; text-decoration-color: initial; float: none; display: inline !important;&quot;&gt;Pipeline Step&lt;/span&gt;" style="text;whiteSpace=wrap;html=1;fontSize=18;align=left;labelBackgroundColor=none;fontStyle=0" vertex="1" parent="1">
          <mxGeometry x="1151.25" y="1309.5" width="118.75" height="30" as="geometry" />
        </mxCell>
        <mxCell id="SGbcWbmZrclR2duvIvgP-22" value="LEGEND" style="text;fontSize=18;align=left;labelBackgroundColor=none;fontStyle=5;html=1;whiteSpace=wrap;" vertex="1" parent="1">
          <mxGeometry x="260" y="1250.5" width="90" height="30" as="geometry" />
        </mxCell>
        <mxCell id="SGbcWbmZrclR2duvIvgP-36" value="" style="html=1;shadow=0;dashed=0;align=center;verticalAlign=middle;shape=mxgraph.arrows2.arrow;dy=0.56;dx=36.2;notch=8.8;strokeWidth=3;strokeColor=none;fillColor=#1A1A1A;" vertex="1" parent="1">
          <mxGeometry x="260" y="1299" width="80" height="51" as="geometry" />
        </mxCell>
      </root>
    </mxGraphModel>
  </diagram>
</mxfile>
